<?xml version="1.0" standalone="no"?>
<!DOCTYPE svg PUBLIC "-//W3C//DTD SVG 20010904//EN"
 "http://www.w3.org/TR/2001/REC-SVG-20010904/DTD/svg10.dtd">
<svg version="1.0" xmlns="http://www.w3.org/2000/svg"
 width="256.000000pt" height="197.000000pt" viewBox="0 0 256.000000 197.000000"
 preserveAspectRatio="xMidYMid meet">

<g transform="translate(0.000000,197.000000) scale(0.100000,-0.100000)"
fill="#000000" stroke="none">
<path d="M1679 1366 c-66 -19 -139 -61 -194 -112 -27 -24 -50 -44 -52 -44 -2
0 -3 17 -3 38 0 63 -54 113 -67 62 -3 -11 -9 -20 -13 -20 -4 0 -19 -11 -35
-26 -25 -23 -27 -29 -20 -80 7 -56 1 -66 -21 -36 -12 16 -15 14 -43 -18 -29
-34 -39 -57 -60 -145 l-9 -40 -1 43 c-1 60 -22 103 -67 140 -40 33 -111 62
-153 62 -70 0 -151 -75 -151 -139 0 -38 46 -91 79 -91 17 0 21 6 21 34 0 18 7
39 15 46 13 11 15 8 15 -18 0 -39 13 -47 51 -32 24 10 33 10 54 -4 27 -18 53
-62 42 -72 -3 -4 -18 3 -33 15 -32 25 -86 28 -108 5 -19 -18 -13 -34 13 -34
21 0 58 -26 50 -34 -3 -4 -19 0 -34 8 -38 20 -46 13 -39 -37 5 -34 2 -47 -15
-67 -17 -21 -22 -23 -31 -10 -5 8 -10 25 -10 37 0 28 -42 57 -70 48 -14 -4
-20 -15 -20 -36 0 -71 -110 -110 -220 -79 -84 23 -170 103 -170 155 1 16 11 9
49 -31 57 -62 102 -87 155 -87 33 0 45 7 73 36 47 52 43 103 -18 195 -82 126
-247 156 -340 63 -83 -82 -71 -222 27 -331 45 -50 105 -81 198 -105 169 -42
271 -32 534 51 97 31 187 56 200 56 13 0 36 -12 52 -27 30 -28 43 -27 60 6 9
16 6 24 -17 45 -22 21 -25 27 -13 34 24 15 83 11 109 -6 13 -9 29 -32 37 -50
16 -39 35 -43 64 -14 31 31 27 83 -11 114 -17 14 -43 29 -57 32 -15 3 -35 7
-44 9 -16 3 -72 -7 -123 -21 -25 -8 89 111 170 175 74 60 135 91 175 91 19 0
33 6 37 16 10 27 -20 45 -78 46 l-54 0 23 18 c64 52 211 76 272 45 50 -26 69
-85 27 -85 -13 0 -28 -5 -35 -12 -6 -6 -14 -9 -18 -6 -3 4 4 16 16 28 30 30
20 45 -26 43 -110 -7 -140 -137 -44 -185 43 -22 121 -23 160 -3 63 32 99 115
81 183 -33 119 -203 198 -342 158z m192 -39 c27 -11 19 -12 -73 -13 -193 -1
-241 -36 -488 -360 -32 -43 -45 -54 -48 -41 -6 29 -17 20 -40 -32 -21 -48 -80
-126 -89 -117 -3 2 3 16 13 30 31 49 8 37 -26 -13 -18 -26 -42 -54 -53 -61
-29 -18 -77 -30 -77 -20 0 5 32 37 71 72 88 79 103 104 124 202 18 89 27 111
55 126 30 16 40 12 40 -15 0 -31 15 -32 31 -4 7 14 9 41 4 75 -7 60 0 94 20
94 7 0 20 11 29 25 9 14 21 25 26 25 14 0 23 -41 22 -100 -2 -54 -2 -54 14
-30 20 32 129 118 186 147 24 12 52 20 63 18 11 -3 36 -1 55 5 40 10 97 5 141
-13z m110 -96 c1 -9 1 -27 1 -41 -1 -16 1 -19 4 -7 3 9 10 17 15 17 22 0 -20
-86 -46 -97 -25 -9 -90 11 -93 30 -3 14 4 17 38 17 48 0 63 24 48 77 -11 42 0
64 19 38 7 -11 13 -26 14 -34z m-181 -57 c-16 -42 -11 -52 8 -14 9 19 26 37
37 39 17 3 16 0 -7 -22 -44 -41 -19 -89 49 -92 47 -1 53 -19 14 -39 -37 -20
-41 -20 -41 -1 0 8 -9 15 -19 15 -11 0 -32 11 -47 23 -30 26 -37 74 -14 101
19 24 31 19 20 -10z m-775 -29 c44 -18 91 -60 105 -95 14 -35 4 -55 -14 -26
-33 55 -105 120 -90 81 8 -19 -4 -19 -47 -1 -21 9 -42 11 -55 6 -46 -18 -33
-28 40 -32 63 -3 79 -7 102 -28 55 -51 70 -139 33 -199 -25 -42 -31 -37 -17
17 15 58 3 106 -33 136 -31 26 -49 26 -82 -2 -26 -22 -47 0 -29 29 17 26 10
33 -23 25 -18 -5 -27 -15 -32 -36 -7 -39 -15 -43 -41 -24 -17 12 -22 25 -22
58 0 97 91 138 205 91z m655 11 c0 -11 -10 -13 -39 -9 -58 8 -107 -13 -172
-73 -52 -48 -79 -65 -79 -49 0 18 93 102 135 121 58 28 155 34 155 10z m-1169
-81 c56 -20 85 -48 116 -112 31 -63 26 -96 -20 -123 -50 -31 -63 -24 -28 15
17 20 31 45 31 57 0 18 -6 15 -45 -21 -51 -47 -77 -52 -93 -16 -6 14 -27 33
-47 42 -35 16 -46 45 -24 59 6 3 22 0 36 -7 47 -25 84 29 44 65 -25 23 -83 23
-117 1 -30 -19 -63 -87 -64 -129 0 -39 44 -123 88 -168 19 -21 33 -41 29 -45
-11 -10 -89 79 -122 139 -52 95 -34 193 44 242 33 20 116 20 172 1z m486 -146
c36 -13 43 -25 43 -74 0 -53 -27 -103 -79 -142 -68 -53 -81 -39 -19 20 64 60
80 102 53 143 -9 14 -28 29 -43 35 -21 8 -23 12 -12 19 19 12 23 12 57 -1z
m-32 -79 c23 -25 14 -59 -27 -105 -41 -47 -72 -62 -183 -90 -74 -18 -103 -21
-140 -14 -51 9 -78 26 -69 40 3 5 -19 20 -48 33 -55 26 -105 63 -96 72 3 2 18
-6 34 -19 91 -77 270 -88 323 -20 12 14 21 39 21 55 0 26 3 29 27 26 19 -2 29
-11 36 -32 9 -27 7 -33 -29 -64 l-39 -34 39 6 c22 3 55 18 75 34 32 26 36 35
39 81 3 56 10 61 37 31z m-295 -3 c0 -16 -27 -41 -52 -50 -25 -9 -22 0 10 33
30 32 42 37 42 17z m815 -6 c44 -20 82 -57 71 -68 -4 -4 -20 7 -36 24 -45 48
-86 58 -162 37 -35 -9 -92 -31 -128 -48 -86 -41 -84 -40 -76 -27 9 14 95 58
161 82 64 23 120 23 170 0z m-166 -75 c15 -8 33 -22 40 -30 12 -14 10 -16 -7
-16 -11 0 -25 7 -32 15 -7 8 -25 15 -40 15 -42 0 -65 11 -48 21 20 13 56 11
87 -5z"/>
</g>
</svg>
