<?xml version="1.0" standalone="no"?>
<!DOCTYPE svg PUBLIC "-//W3C//DTD SVG 20010904//EN"
 "http://www.w3.org/TR/2001/REC-SVG-20010904/DTD/svg10.dtd">
<svg version="1.0" xmlns="http://www.w3.org/2000/svg"
 width="256.000000pt" height="197.000000pt" viewBox="0 0 256.000000 197.000000"
 preserveAspectRatio="xMidYMid meet">

<g transform="translate(0.000000,197.000000) scale(0.100000,-0.100000)"
fill="#000000" stroke="none">
<path d="M727 1370 c-130 -33 -214 -139 -187 -239 21 -78 76 -121 155 -121 66
0 112 22 131 64 33 67 -11 134 -90 139 -46 2 -56 -13 -26 -43 12 -12 19 -24
16 -28 -4 -3 -12 0 -18 6 -7 7 -22 12 -35 12 -42 0 -23 59 27 85 61 31 208 7
272 -45 l23 -18 -54 0 c-58 -1 -88 -19 -78 -46 4 -10 18 -16 37 -16 40 0 101
-31 175 -91 81 -64 195 -183 170 -175 -51 14 -107 24 -123 21 -9 -2 -29 -6
-44 -9 -14 -3 -40 -18 -57 -32 -38 -31 -42 -83 -11 -114 29 -29 48 -25 64 14
19 45 52 66 103 66 53 0 62 -14 29 -45 -22 -20 -25 -28 -16 -44 17 -33 30 -34
60 -6 16 15 39 27 52 27 13 0 95 -23 183 -51 205 -66 307 -85 408 -77 161 12
276 55 341 126 98 109 110 249 27 331 -93 93 -258 63 -340 -63 -61 -92 -65
-143 -18 -195 28 -29 40 -36 73 -36 53 0 98 25 155 87 38 40 48 47 49 31 0
-52 -86 -132 -170 -155 -111 -31 -220 9 -220 80 0 20 -6 31 -20 35 -28 9 -70
-20 -70 -48 0 -12 -5 -29 -10 -37 -9 -13 -14 -11 -31 10 -17 20 -20 33 -15 67
7 50 -1 57 -39 37 -15 -8 -31 -12 -34 -8 -8 8 29 34 50 34 27 0 34 21 14 37
-28 19 -79 16 -109 -8 -15 -12 -30 -19 -33 -15 -11 10 15 54 42 72 21 14 30
14 54 4 36 -15 51 -7 51 26 0 40 25 23 28 -19 4 -47 31 -50 73 -8 54 54 27
140 -57 181 -48 24 -76 25 -135 5 -93 -32 -148 -100 -150 -187 l-1 -43 -9 40
c-21 88 -31 111 -60 145 -28 32 -31 34 -43 18 -22 -30 -28 -20 -21 35 7 53 7
54 -39 100 -25 26 -50 47 -55 47 -19 0 -41 -45 -41 -82 0 -21 -1 -38 -3 -38
-2 0 -26 20 -53 45 -99 93 -245 140 -347 115z m154 -35 c20 -1 53 -10 73 -21
52 -27 162 -114 180 -144 16 -24 16 -24 14 30 -1 59 8 100 22 100 5 0 17 -11
26 -25 9 -14 22 -25 29 -25 20 0 27 -34 20 -94 -5 -34 -3 -61 4 -75 16 -28 31
-27 31 4 0 31 21 32 54 3 18 -18 28 -43 41 -108 20 -104 35 -128 124 -208 39
-35 71 -67 71 -72 0 -10 -48 2 -77 20 -11 7 -35 35 -53 61 -34 50 -57 62 -26
13 28 -42 11 -38 -28 7 -19 23 -43 62 -52 86 -18 45 -30 55 -36 26 -3 -13 -16
-2 -48 41 -247 324 -295 359 -487 360 -57 1 -103 2 -103 3 0 1 21 9 48 17 30
10 63 13 92 9 25 -4 61 -7 81 -8z m-269 -107 c-15 -54 0 -78 48 -78 34 0 41
-3 38 -17 -3 -19 -68 -39 -93 -30 -26 11 -68 97 -46 97 5 0 12 -8 14 -17 2
-10 4 -2 4 17 0 43 21 86 35 72 6 -6 6 -22 0 -44z m140 -68 c19 -38 24 -28 8
14 -11 29 1 34 20 10 23 -27 16 -75 -14 -101 -15 -12 -36 -23 -47 -23 -10 0
-19 -7 -19 -15 0 -19 -4 -19 -41 1 -40 20 -32 38 16 40 27 0 44 8 57 24 24 30
23 36 -9 67 -24 22 -25 25 -8 22 11 -2 28 -20 37 -39z m283 -14 c42 -19 135
-103 135 -121 0 -14 -23 0 -78 49 -68 60 -116 81 -173 73 -29 -4 -39 -2 -39 9
0 24 97 18 155 -10z m627 14 c48 -14 78 -55 78 -108 0 -31 -6 -45 -22 -56 -26
-19 -34 -15 -41 24 -5 21 -14 31 -32 36 -33 8 -40 1 -23 -25 18 -29 -3 -51
-29 -29 -33 28 -51 28 -82 2 -36 -30 -48 -78 -33 -136 14 -54 8 -59 -17 -17
-37 60 -22 148 33 199 23 21 39 25 102 28 73 4 86 14 40 32 -13 5 -34 3 -55
-6 -43 -18 -55 -18 -47 1 15 39 -57 -26 -90 -81 -19 -32 -29 -6 -11 30 21 44
77 86 135 102 59 16 51 16 94 4z m564 -90 c18 -12 42 -40 54 -66 28 -56 22
-108 -20 -181 -34 -59 -107 -140 -117 -129 -4 3 10 23 29 44 44 45 88 129 88
168 -1 42 -34 110 -64 129 -34 22 -92 22 -117 -1 -40 -36 -3 -90 44 -65 14 7
30 10 36 7 22 -14 11 -43 -24 -59 -20 -9 -41 -28 -47 -42 -16 -36 -42 -31 -93
16 -39 36 -45 39 -45 21 0 -12 14 -37 31 -57 35 -39 22 -46 -28 -15 -46 27
-51 60 -20 123 14 29 36 62 49 74 56 53 184 70 244 33z m-606 -140 c11 -7 9
-11 -12 -19 -78 -29 -71 -110 15 -185 60 -53 42 -64 -24 -13 -52 39 -79 89
-79 142 0 48 7 61 40 74 32 13 42 13 60 1z m12 -111 c3 -46 7 -55 39 -81 20
-16 53 -31 75 -34 l39 -6 -39 34 c-36 31 -38 37 -29 64 7 21 17 30 36 32 24 3
27 0 27 -26 0 -69 75 -109 182 -98 68 7 118 26 160 61 17 14 33 23 36 21 9 -9
-41 -46 -96 -72 -29 -13 -51 -28 -48 -33 9 -14 -16 -29 -65 -40 -37 -8 -62 -6
-141 13 -114 29 -145 44 -186 91 -41 46 -50 80 -27 105 27 30 34 25 37 -31z
m-320 -7 c47 -22 89 -45 93 -52 9 -14 11 -15 -75 26 -36 17 -93 39 -128 48
-76 21 -117 11 -162 -37 -32 -34 -55 -30 -24 4 62 70 163 74 296 11z m619 19
c33 -34 36 -43 12 -34 -26 9 -53 34 -53 50 0 19 8 16 41 -16z m-603 -60 c17
-10 -6 -21 -48 -21 -15 0 -33 -7 -40 -15 -14 -17 -55 -21 -44 -4 22 36 101 60
132 40z"/>
</g>
</svg>
